HIERARCHY
ROOT root
{
	OFFSET 0.000000 0.000000 0.000000
	CHANNELS 6 Xposition Yposition Zposition Zrotation Yrotation Xrotation
	JOINT lhip
	{
		OFFSET 0.058581 -0.082280 -0.017664
		CHANNELS 3 Zrotation Yrotation Xrotation
		JOINT lknee
		{
			OFFSET 0.043451 -0.386469 0.008037
			CHANNELS 3 Zrotation Yrotation Xrotation
			JOINT lankle
			{
				OFFSET -0.014790 -0.426874 -0.037428
				CHANNELS 3 Zrotation Yrotation Xrotation
				JOINT ltoe
				{
					OFFSET 0.041054 -0.060286 0.122042
					CHANNELS 3 Zrotation Yrotation Xrotation
					End Site
					{
						OFFSET 0.000000 0.000000 0.000000
					}
				}
			}
		}
	}
	JOINT rhip
	{
		OFFSET -0.060310 -0.090513 -0.013543
		CHANNELS 3 Zrotation Yrotation Xrotation
		JOINT rknee
		{
			OFFSET -0.043257 -0.383688 -0.004843
			CHANNELS 3 Zrotation Yrotation Xrotation
			JOINT rankle
			{
				OFFSET 0.019056 -0.420046 -0.034562
				CHANNELS 3 Zrotation Yrotation Xrotation
				JOINT rtoe
				{
					OFFSET -0.034840 -0.062106 0.130323
					CHANNELS 3 Zrotation Yrotation Xrotation
					End Site
					{
						OFFSET 0.000000 0.000000 0.000000
					}
				}
			}
		}
	}
	JOINT lowerback
	{
		OFFSET 0.004439 0.124404 -0.038385
		CHANNELS 3 Zrotation Yrotation Xrotation
		JOINT upperback
		{
			OFFSET 0.004488 0.137956 0.026820
			CHANNELS 3 Zrotation Yrotation Xrotation
			JOINT chest
			{
				OFFSET -0.002265 0.056032 0.002855
				CHANNELS 3 Zrotation Yrotation Xrotation
				JOINT lowerneck
				{
					OFFSET -0.013390 0.211636 -0.033468
					CHANNELS 3 Zrotation Yrotation Xrotation
					JOINT upperneck
					{
						OFFSET 0.010113 0.088937 0.050410
						CHANNELS 3 Zrotation Yrotation Xrotation
						End Site
						{
							OFFSET 0.000000 0.000000 0.000000
						}
					}
				}
				JOINT lclavicle
				{
					OFFSET 0.071702 0.114000 -0.018898
					CHANNELS 3 Zrotation Yrotation Xrotation
					JOINT lshoulder
					{
						OFFSET 0.122921 0.045205 -0.019046
						CHANNELS 3 Zrotation Yrotation Xrotation
						JOINT lelbow
						{
							OFFSET 0.255332 -0.015649 -0.022946
							CHANNELS 3 Zrotation Yrotation Xrotation
							JOINT lwrist
							{
								OFFSET 0.265709 0.012698 -0.007375
								CHANNELS 3 Zrotation Yrotation Xrotation
								End Site
								{
									OFFSET 0.000000 0.000000 0.000000
								}
							}
						}
					}
				}
				JOINT rclavicle
				{
					OFFSET -0.082954 0.112472 -0.023707
					CHANNELS 3 Zrotation Yrotation Xrotation
					JOINT rshoulder
					{
						OFFSET -0.113228 0.046853 -0.008472
						CHANNELS 3 Zrotation Yrotation Xrotation
						JOINT relbow
						{
							OFFSET -0.260127 -0.014369 -0.031269
							CHANNELS 3 Zrotation Yrotation Xrotation
							JOINT rwrist
							{
								OFFSET -0.269108 0.006794 -0.006027
								CHANNELS 3 Zrotation Yrotation Xrotation
								End Site
								{
									OFFSET 0.000000 0.000000 0.000000
								}
							}
						}
					}
				}
			}
		}
	}
}
MOTION
Frames: 14
Frame Time: 0.033333
2.354785 0.668273 0.992984 -84.785329 0.391577 81.637351 -1.760525 -0.659210 6.488276 0.691172 -12.384327 1.055709 2.102518 9.403164 -10.643064 0.000000 -0.000000 0.000000 0.442634 -4.112524 4.577235 -4.059364 -1.774234 6.796306 0.950543 -10.178753 -13.690146 0.000000 -0.000000 0.000000 1.091803 2.737850 9.839518 -1.971843 -2.254052 6.291129 0.211851 0.842448 -5.340876 -1.406443 26.162687 -4.999563 0.592477 28.022092 4.889087 -28.615038 -10.749287 3.473301 -51.721294 -5.764260 13.761793 1.254770 -21.531041 11.783843 -6.376709 -4.569681 2.362476 24.276015 9.700442 6.649238 58.587832 4.664955 18.471927 -2.269325 26.956370 9.039189 6.621147 3.499695 0.532284 
2.357550 0.670206 0.990501 -85.161114 -0.314859 82.515731 -2.413480 -0.899929 4.883333 0.448671 -11.792817 1.733234 2.100201 9.680980 -10.170603 0.000000 -0.000000 0.000000 -0.120796 -2.951409 2.789616 -4.098344 -1.920386 7.925646 0.909036 -10.921836 -13.639744 0.000000 -0.000000 0.000000 0.392584 3.551766 9.773169 -2.094043 -1.615055 4.745935 0.053535 0.741189 -4.371436 -0.972880 26.022224 -4.622259 0.223512 27.603758 4.390194 -27.842123 -9.577133 2.349211 -51.197577 -5.665842 14.733250 -1.120507 -22.642497 13.105241 -5.367954 -3.515099 2.710974 24.331935 9.260491 6.785873 58.870190 5.127606 18.930694 -2.135998 26.873662 8.611647 5.391555 3.022662 0.316923 
2.359334 0.672120 0.989007 -85.218929 -0.700625 82.938654 -2.719872 -1.131691 4.099877 0.264161 -11.540674 2.018044 2.002698 9.842653 -9.793244 0.000000 -0.000000 0.000000 -0.493891 -2.333347 1.916844 -4.028040 -2.089049 8.495609 0.977853 -11.214783 -13.421894 0.000000 -0.000000 0.000000 -0.083417 3.641054 9.755432 -2.102277 -1.244643 4.059879 0.020571 0.888785 -3.873342 -1.067053 26.282624 -4.446813 -0.051372 27.406201 3.611585 -27.277204 -8.858501 1.717226 -51.964359 -5.827583 14.756436 -1.061368 -22.397227 12.454087 -6.119997 -3.328178 2.552229 24.320812 9.078201 6.844030 59.068198 5.388152 19.060974 -2.346954 26.819906 8.323443 5.930481 3.014427 0.506197 
2.359169 0.673068 0.989181 -84.457023 -0.655889 83.024577 -2.583011 -1.305358 3.813728 0.136137 -11.702884 2.301557 1.917618 9.626693 -9.874232 0.000000 -0.000000 0.000000 -0.552411 -2.583041 2.067768 -3.929318 -2.384953 8.331755 1.033432 -11.462220 -13.278912 0.000000 -0.000000 0.000000 -0.277699 3.635749 9.288945 -1.944663 -1.375629 4.371275 0.055016 0.913901 -3.761700 -1.112842 26.371246 -4.201927 -0.213347 27.209987 3.015604 -27.437263 -8.655639 1.757248 -51.882541 -5.755064 14.686174 -0.950488 -22.284514 12.516273 -6.219177 -3.350674 2.925496 24.398688 8.937079 6.838235 58.929133 5.304614 18.859701 -2.305537 26.883680 8.307981 5.788223 2.970524 0.758563 
2.359136 0.673509 0.989681 -84.233987 -0.636068 82.995591 -2.520569 -1.321918 3.777772 0.107623 -11.885856 2.408709 1.867000 9.605603 -9.860956 0.000000 -0.000000 0.000000 -0.537347 -2.651629 2.146923 -3.906128 -2.428754 8.349042 0.948626 -11.552884 -13.211729 0.000000 -0.000000 0.000000 -0.353263 3.671675 9.242337 -1.892585 -1.319028 4.406518 0.098918 0.925479 -3.771621 -1.101404 26.234879 -4.126535 -0.323386 27.189056 2.986213 -27.591727 -8.570569 1.737047 -51.743885 -5.688929 14.760241 -0.920290 -22.102196 12.574790 -6.056933 -3.472642 3.107973 24.356993 8.798960 6.863494 58.862661 5.218844 18.803188 -2.139997 26.956325 8.368304 5.739047 3.030817 0.743812 
2.359612 0.674103 0.989796 -84.154572 -0.686271 83.027909 -2.514295 -1.355700 3.749559 0.063788 -11.895484 2.323259 1.803077 9.633054 -9.736305 0.000000 -0.000000 0.000000 -0.535656 -2.562590 2.069045 -3.961682 -2.544438 8.418231 0.912449 -11.688673 -13.325022 0.000000 -0.000000 0.000000 -0.396651 3.697834 9.257362 -1.959300 -1.178945 4.466812 0.056893 1.006862 -3.820071 -1.085295 26.263883 -4.158050 -0.318933 27.208650 2.853645 -27.532815 -8.543135 1.700671 -51.799776 -5.619373 14.785577 -0.797717 -22.141558 12.431893 -6.234991 -3.272590 3.024381 24.190352 8.921992 6.867533 59.024572 5.175102 18.872214 -2.170081 26.958352 8.276286 5.887766 2.961148 0.353911 
2.359390 0.674225 0.989818 -83.970832 -0.675990 82.950386 -2.513557 -1.383699 3.915338 0.119593 -11.983941 2.147404 1.807939 9.606951 -9.635049 0.000000 -0.000000 0.000000 -0.571268 -2.702599 2.222758 -3.902008 -2.582415 8.365681 0.916219 -11.671122 -13.339378 0.000000 -0.000000 0.000000 -0.279847 3.673157 9.482391 -2.079422 -1.192999 4.258280 -0.001874 1.042658 -3.852031 -0.970086 26.244269 -4.223932 -0.084387 27.394867 3.201744 -27.613678 -8.390606 1.765620 -51.586188 -5.527457 14.731323 -0.898515 -22.423744 12.704183 -5.883528 -3.307377 2.847658 24.138006 8.751567 6.788866 59.132752 5.114736 18.911939 -2.043640 26.965373 8.561527 5.784734 2.978459 0.284416 
2.359125 0.674522 0.989813 -83.661885 -0.639653 82.996305 -2.442066 -1.469516 3.778505 0.061312 -12.117535 2.301667 1.834184 9.542815 -9.723715 0.000000 -0.000000 0.000000 -0.523256 -2.834968 2.273850 -3.921583 -2.650136 8.283499 0.901024 -11.746062 -13.358428 0.000000 -0.000000 0.000000 -0.316941 3.658909 9.342459 -2.047045 -1.292634 4.369919 -0.012325 1.033114 -3.844388 -1.020334 26.262596 -4.321190 -0.042903 27.419310 3.269227 -27.602224 -8.374590 1.776001 -51.622143 -5.469355 14.803041 -0.716641 -22.462173 12.833098 -5.574214 -3.445953 3.061585 24.215737 8.737633 6.792810 59.102818 5.044048 18.881336 -2.078695 27.016544 8.579787 5.691822 2.916210 0.381257 
2.359205 0.674859 0.989948 -83.490077 -0.596436 82.975581 -2.338517 -1.550883 3.765719 -0.031815 -12.143640 2.329911 1.665234 9.443164 -9.699197 0.000000 -0.000000 0.000000 -0.505387 -2.920740 2.295510 -3.879246 -2.749339 8.320732 0.935582 -11.770386 -13.357333 0.000000 -0.000000 0.000000 -0.332265 3.677857 9.304385 -2.019815 -1.317861 4.481691 -0.005140 1.088828 -3.837368 -0.999370 26.297917 -4.308395 -0.083867 27.339648 3.219484 -27.704276 -8.445371 1.815971 -51.500037 -5.514229 14.758770 -0.819035 -22.539397 12.932224 -5.824497 -3.580028 3.141582 24.311733 8.840771 6.897258 59.005716 5.039246 18.809594 -2.191526 27.087543 8.466160 5.791101 2.937244 0.333008 
2.360128 0.675170 0.990024 -83.609950 -0.618515 82.922492 -2.359152 -1.550480 3.780740 -0.004040 -12.133102 2.302713 1.767901 9.541812 -9.703988 0.000000 -0.000000 0.000000 -0.476028 -2.756754 2.197882 -3.867511 -2.689240 8.456847 0.748341 -11.758858 -13.283300 0.000000 -0.000000 0.000000 -0.278247 3.690668 9.689237 -2.089767 -1.158304 4.168444 -0.052601 1.137090 -3.770653 -1.085958 26.251521 -4.335427 -0.113248 27.450845 3.117426 -27.803723 -8.518508 1.784186 -51.445222 -5.664783 14.812737 -0.826601 -22.463830 12.836329 -6.024055 -3.596659 2.910720 24.219415 8.840409 6.820837 59.084193 5.003637 18.951665 -2.103827 27.134438 8.566690 5.936667 2.914955 0.028108 
2.360122 0.675328 0.989914 -83.518724 -0.598545 82.997183 -2.315646 -1.603953 3.662188 -0.025454 -12.128221 2.346826 1.823034 9.488449 -9.597983 0.000000 -0.000000 0.000000 -0.451184 -2.773575 2.090085 -3.908481 -2.822467 8.553202 0.849347 -11.815090 -13.362927 0.000000 -0.000000 0.000000 -0.235849 3.656056 9.684465 -2.125595 -1.170828 4.060037 -0.097817 1.162324 -3.749960 -1.038913 26.264990 -4.390181 -0.058108 27.463208 3.205070 -27.845640 -8.461318 1.786537 -51.392976 -5.627990 14.807991 -0.877003 -22.741845 12.897078 -6.085709 -3.532002 2.769668 24.234209 8.823743 6.801452 59.135363 4.929503 18.969296 -2.177356 27.229856 8.669803 6.044754 2.887679 0.014764 
2.359856 0.675239 0.990068 -83.474131 -0.597151 83.009780 -2.308428 -1.621385 3.663724 -0.033318 -12.141710 2.352549 1.786687 9.487583 -9.723012 0.000000 -0.000000 0.000000 -0.469382 -2.840023 2.151915 -3.869930 -2.792813 8.434562 0.889039 -11.834263 -13.407839 0.000000 -0.000000 0.000000 -0.261206 3.682682 9.623015 -2.109595 -1.207301 4.176703 -0.091429 1.136291 -3.898196 -0.980097 26.290963 -4.350910 0.006026 27.495936 3.330708 -27.893355 -8.444604 1.820473 -51.353550 -5.558074 14.882380 -0.873541 -22.900249 13.081407 -6.061943 -3.699475 2.908772 24.320416 8.784983 6.866260 59.032703 4.892536 18.921576 -2.098126 27.146456 8.702418 6.007001 2.917914 0.077009 
2.359530 0.675308 0.989905 -83.397700 -0.628206 83.093830 -2.325442 -1.640517 3.564065 -0.042403 -12.120446 2.363306 1.748805 9.455608 -9.651806 0.000000 -0.000000 0.000000 -0.496043 -2.896406 2.080560 -3.863328 -2.775136 8.445142 0.786112 -11.744607 -13.388060 0.000000 -0.000000 0.000000 -0.356890 3.693099 9.367068 -2.048844 -1.244145 4.401029 -0.080886 1.113832 -3.925606 -0.998769 26.351769 -4.257410 -0.119343 27.453163 3.104149 -27.809539 -8.408928 1.721212 -51.402711 -5.559137 14.879612 -1.061606 -23.089342 12.889851 -5.962815 -3.551511 2.811547 24.307832 8.765824 6.832060 59.005793 4.868743 18.923381 -2.029285 27.173096 8.595505 6.020646 2.905412 0.169426 
2.359406 0.675311 0.989886 -83.381730 -0.576673 83.032298 -2.256331 -1.624674 3.666641 0.001343 -12.157051 2.248768 1.705639 9.408320 -9.608150 0.000000 -0.000000 0.000000 -0.473540 -3.003666 2.190450 -3.854315 -2.787636 8.371424 0.870552 -11.756541 -13.378797 0.000000 -0.000000 0.000000 -0.370873 3.698191 9.267219 -1.994602 -1.335800 4.768929 -0.057801 1.131763 -4.032846 -1.000651 26.539493 -4.530776 -0.035482 27.445961 3.264092 -27.732740 -8.483125 1.713126 -51.393865 -5.581989 14.776120 -1.195304 -23.229488 12.725571 -5.820074 -3.364653 2.759058 24.393902 8.776483 6.894445 58.893945 5.021381 18.821838 -2.077937 27.159917 8.507677 5.908096 2.825682 0.415998 
